<?xml version="1.0" encoding="UTF-8" standalone="no"?>
<!-- Created with Inkscape (http://www.inkscape.org/) -->

<svg
   xmlns:dc="http://purl.org/dc/elements/1.1/"
   xmlns:cc="http://creativecommons.org/ns#"
   xmlns:rdf="http://www.w3.org/1999/02/22-rdf-syntax-ns#"
   xmlns:svg="http://www.w3.org/2000/svg"
   xmlns="http://www.w3.org/2000/svg"
   xmlns:xlink="http://www.w3.org/1999/xlink"
   xmlns:sodipodi="http://sodipodi.sourceforge.net/DTD/sodipodi-0.dtd"
   xmlns:inkscape="http://www.inkscape.org/namespaces/inkscape"
   width="1000"
   height="1000"
   viewBox="0 0 1000 1000"
   id="svg2"
   version="1.1"
   inkscape:version="0.91 r13725"
   sodipodi:docname="logo-driveoff.svg">
  <defs
     id="defs4">
    <radialGradient
       inkscape:collect="always"
       xlink:href="#linearGradient6608"
       id="radialGradient6614-3-5"
       cx="-1425.7142"
       cy="61.647923"
       fx="-1425.7142"
       fy="61.647923"
       r="113.05582"
       gradientUnits="userSpaceOnUse"
       gradientTransform="matrix(0.86777748,0,0,0.86777748,931.4097,1865.8995)" />
    <linearGradient
       inkscape:collect="always"
       id="linearGradient6608">
      <stop
         style="stop-color:#1a1a1a;stop-opacity:1;"
         offset="0"
         id="stop6610" />
      <stop
         style="stop-color:#1a1a1a;stop-opacity:0;"
         offset="1"
         id="stop6612" />
    </linearGradient>
  </defs>
  <sodipodi:namedview
     id="base"
     pagecolor="#ffffff"
     bordercolor="#666666"
     borderopacity="1.0"
     inkscape:pageopacity="0.0"
     inkscape:pageshadow="2"
     inkscape:zoom="0.7"
     inkscape:cx="618.29829"
     inkscape:cy="646.24939"
     inkscape:document-units="px"
     inkscape:current-layer="g7116-5-1"
     showgrid="false"
     showguides="false"
     inkscape:guide-bbox="true"
     inkscape:window-width="1855"
     inkscape:window-height="1056"
     inkscape:window-x="65"
     inkscape:window-y="24"
     inkscape:window-maximized="1"
     units="px">
    <sodipodi:guide
       position="213.92857,996.07145"
       orientation="0,1"
       id="guide5045" />
    <sodipodi:guide
       position="225.35714,1041.4286"
       orientation="0,1"
       id="guide5047" />
    <sodipodi:guide
       position="240,951.78574"
       orientation="0,1"
       id="guide5049" />
    <sodipodi:guide
       position="247.14286,1041.4286"
       orientation="0,1"
       id="guide5162" />
    <sodipodi:guide
       position="212.85714,1280.7143"
       orientation="0,1"
       id="guide7737" />
    <sodipodi:guide
       position="207.85714,1236.0715"
       orientation="0,1"
       id="guide7739" />
    <sodipodi:guide
       position="231.07143,1191.0715"
       orientation="0,1"
       id="guide7741" />
    <sodipodi:guide
       position="239.64286,1528.5715"
       orientation="0,1"
       id="guide9389" />
    <sodipodi:guide
       position="226.07143,1438.9286"
       orientation="0,1"
       id="guide9391" />
    <sodipodi:guide
       position="217.5,1483.2143"
       orientation="0,1"
       id="guide9393" />
    <sodipodi:guide
       position="-706.09663,-812.16266"
       orientation="1,0"
       id="guide5952" />
    <sodipodi:guide
       position="697.76287,-1956.918"
       orientation="0,1"
       id="guide6359" />
    <sodipodi:guide
       position="-221.22341,-2188.4955"
       orientation="0,1"
       id="guide6361" />
    <sodipodi:guide
       position="576.29203,-2094.0463"
       orientation="1,0"
       id="guide6363" />
    <sodipodi:guide
       position="807.61696,-2073.3381"
       orientation="1,0"
       id="guide6365" />
  </sodipodi:namedview>
  <metadata
     id="metadata7">
    <rdf:RDF>
      <cc:Work
         rdf:about="">
        <dc:format>image/svg+xml</dc:format>
        <dc:type
           rdf:resource="http://purl.org/dc/dcmitype/StillImage" />
        <dc:title></dc:title>
      </cc:Work>
    </rdf:RDF>
  </metadata>
  <g
     inkscape:label="Calque 1"
     inkscape:groupmode="layer"
     id="layer1"
     transform="translate(0,-52.362161)">
    <text
       xml:space="preserve"
       style="font-style:normal;font-weight:normal;font-size:13.73812962px;line-height:125%;font-family:sans-serif;text-align:center;letter-spacing:0px;word-spacing:0px;text-anchor:middle;fill:#ffffff;fill-opacity:1;stroke:none;stroke-width:1px;stroke-linecap:butt;stroke-linejoin:miter;stroke-opacity:1"
       x="169.58203"
       y="78.614128"
       id="text5051-7"
       sodipodi:linespacing="125%"><tspan
         sodipodi:role="line"
         x="169.58203"
         y="78.614128"
         style="font-style:normal;font-variant:normal;font-weight:bold;font-stretch:normal;font-family:'Open Sans';-inkscape-font-specification:'Open Sans Bold';text-align:start;text-anchor:start"
         id="tspan5055-3" /></text>
    <flowRoot
       xml:space="preserve"
       id="flowRoot6852"
       style="font-style:normal;font-weight:normal;font-size:40px;line-height:125%;font-family:sans-serif;letter-spacing:0px;word-spacing:0px;fill:#000000;fill-opacity:1;stroke:none;stroke-width:1px;stroke-linecap:butt;stroke-linejoin:miter;stroke-opacity:1"><flowRegion
         id="flowRegion6854"><rect
           id="rect6856"
           width="577.14288"
           height="41.42857"
           x="-2582.8572"
           y="382.36221" /></flowRegion><flowPara
         id="flowPara6858" /></flowRoot>    <g
       id="g7338" />
    <g
       id="g6233">
      <g
         id="g6421-9-2"
         transform="matrix(0.84044957,0,0,0.84035379,160.37587,877.34106)" />
      <g
         id="g7011"
         transform="matrix(15.625,0,0,15.625,-6244.6828,-37938.422)"
         inkscape:export-filename="/home/unknown/perso/WORK/DATA/OpenFoodFacts/extension/32x32-white.png"
         inkscape:export-xdpi="90"
         inkscape:export-ydpi="90">
        <g
           transform="matrix(0.10686368,0,0,0.10686368,437.45662,2122.0775)"
           id="g6706"
           inkscape:export-filename="/home/unknown/perso/WORK/DATA/OpenFoodFacts/extension/128x128-white.png"
           inkscape:export-xdpi="90"
           inkscape:export-ydpi="90">
          <g
             transform="matrix(0.80443699,0,0,0.80443699,344.00032,1551.8086)"
             id="g7116-5-1">
            <g
               id="g6771-3-0"
               transform="matrix(2.8922278,0,0,2.8922278,3562.8876,1854.4547)"
               style="fill:#000000;fill-opacity:1">
              <rect
                 y="50.397919"
                 x="-1427.7233"
                 height="48.214283"
                 width="8.2143202"
                 id="rect6646-5-6"
                 style="opacity:1;fill:#000000;fill-opacity:1;stroke:none;stroke-width:3;stroke-linecap:round;stroke-linejoin:round;stroke-miterlimit:4;stroke-dasharray:none;stroke-dashoffset:0;stroke-opacity:1" />
              <rect
                 y="50.397919"
                 x="-1415.5804"
                 height="48.214283"
                 width="3.9286058"
                 id="rect6646-0-6-3"
                 style="opacity:1;fill:#000000;fill-opacity:1;stroke:none;stroke-width:3;stroke-linecap:round;stroke-linejoin:round;stroke-miterlimit:4;stroke-dasharray:none;stroke-dashoffset:0;stroke-opacity:1" />
              <rect
                 y="50.397919"
                 x="-1407.5447"
                 height="48.214283"
                 width="11.428606"
                 id="rect6646-0-4-2-2"
                 style="opacity:1;fill:#000000;fill-opacity:1;stroke:none;stroke-width:3;stroke-linecap:round;stroke-linejoin:round;stroke-miterlimit:4;stroke-dasharray:none;stroke-dashoffset:0;stroke-opacity:1" />
              <rect
                 y="50.397919"
                 x="-1391.2947"
                 height="48.214283"
                 width="3.5714631"
                 id="rect6646-0-4-8-9-0"
                 style="opacity:1;fill:#000000;fill-opacity:1;stroke:none;stroke-width:3;stroke-linecap:round;stroke-linejoin:round;stroke-miterlimit:4;stroke-dasharray:none;stroke-dashoffset:0;stroke-opacity:1" />
              <rect
                 y="50.397919"
                 x="-1379.509"
                 height="48.214283"
                 width="7.1428919"
                 id="rect6646-0-4-8-8-1-6"
                 style="opacity:1;fill:#000000;fill-opacity:1;stroke:none;stroke-width:3;stroke-linecap:round;stroke-linejoin:round;stroke-miterlimit:4;stroke-dasharray:none;stroke-dashoffset:0;stroke-opacity:1" />
              <rect
                 y="50.397919"
                 x="-1367.3661"
                 height="48.214283"
                 width="11.250034"
                 id="rect6646-0-4-8-8-8-2-1"
                 style="opacity:1;fill:#000000;fill-opacity:1;stroke:none;stroke-width:3;stroke-linecap:round;stroke-linejoin:round;stroke-miterlimit:4;stroke-dasharray:none;stroke-dashoffset:0;stroke-opacity:1" />
              <rect
                 y="50.397919"
                 x="-1351.2054"
                 height="48.214283"
                 width="3.2143199"
                 id="rect6646-0-4-8-8-8-9-7-5"
                 style="opacity:1;fill:#000000;fill-opacity:1;stroke:none;stroke-width:3;stroke-linecap:round;stroke-linejoin:round;stroke-miterlimit:4;stroke-dasharray:none;stroke-dashoffset:0;stroke-opacity:1" />
            </g>
            <g
               id="g6915-0-5"
               transform="matrix(2.3458306,0,0,2.3458306,-1203.5989,1813.1762)">
              <g
                 id="g6960-9-4"
                 transform="matrix(0.41962213,0,0,0.41962213,187.1475,18.57673)">
                <g
                   id="g6917-3-7">
                  <path
                     d="M 128.77676,93.738528 192.27873,304 l 255.71327,0 0,32 -288.56575,0 -59.24744,-210.26147 -69.530999,0 0,-32.000002 z"
                     id="polygon6919-6-6"
                     inkscape:connector-curvature="0"
                     sodipodi:nodetypes="ccccccccc" />
                </g>
                <path
                   inkscape:connector-curvature="0"
                   d="m 242.03525,388.42595 c 0,18.88841 -15.32456,34.21297 -34.21298,34.21297 -18.88841,0 -34.21297,-15.32456 -34.21297,-34.21297 0,-18.88842 15.32456,-34.21298 34.21297,-34.21298 18.88842,0 34.21298,15.32456 34.21298,34.21298 z"
                   id="path6921-0-5" />
                <path
                   inkscape:connector-curvature="0"
                   d="m 438.80065,388.42595 c 0,18.88841 -15.32456,34.21297 -34.21297,34.21297 -18.88842,0 -34.21298,-15.32456 -34.21298,-34.21297 0,-18.88842 15.32456,-34.21298 34.21298,-34.21298 18.88841,0 34.21297,15.32456 34.21297,34.21298 z"
                   id="path6923-6-6" />
              </g>
            </g>
            <g
               style="font-style:normal;font-variant:normal;font-weight:bold;font-stretch:normal;font-size:137.39900208px;line-height:125%;font-family:'Source Sans Pro';-inkscape-font-specification:'Source Sans Pro Bold';letter-spacing:0px;word-spacing:0px;fill:#000000;fill-opacity:1;stroke:none;stroke-width:1px;stroke-linecap:butt;stroke-linejoin:miter;stroke-opacity:1"
               id="text5781-2-9">
              <path
                 d="m -734.47954,1928.7643 0,-89.5842 25.28141,0 q 10.30493,0 18.54887,2.6106 8.24394,2.6106 14.1521,8.1066 5.90815,5.3585 9.06833,13.7399 3.16018,8.3813 3.16018,19.9228 0,11.5415 -3.16018,20.0603 -3.16018,8.5187 -8.93093,14.1521 -5.77076,5.4959 -13.8773,8.2439 -7.96915,2.748 -17.86187,2.748 l -26.38061,0 z m 20.19765,-16.3505 3.84717,0 q 5.77076,0 10.44233,-1.5114 4.67156,-1.5114 7.96914,-4.809 3.29758,-3.4349 5.08376,-8.9309 1.92359,-5.4959 1.92359,-13.6025 0,-7.9691 -1.92359,-13.3277 -1.78618,-5.496 -5.08376,-8.6561 -3.29758,-3.2976 -7.96914,-4.6716 -4.67157,-1.374 -10.44233,-1.374 l -3.84717,0 0,56.8832 z"
                 style="font-style:normal;font-variant:normal;font-weight:bold;font-stretch:normal;font-family:'Source Sans Pro';-inkscape-font-specification:'Source Sans Pro Bold'"
                 id="path9414" />
              <path
                 d="m -648.91217,1928.7643 0,-68.1499 16.48788,0 1.37399,11.9537 0.5496,0 q 3.70977,-7.0074 8.93094,-10.3049 5.22116,-3.2976 10.44232,-3.2976 2.88538,0 4.67157,0.4122 1.92358,0.2748 3.43497,0.9618 l -3.29758,17.4497 q -1.92358,-0.5496 -3.57237,-0.8244 -1.64879,-0.2748 -3.84717,-0.2748 -3.84717,0 -8.10654,2.7479 -4.12197,2.748 -6.86995,9.7554 l 0,39.5709 -20.19766,0 z"
                 style="font-style:normal;font-variant:normal;font-weight:bold;font-stretch:normal;font-family:'Source Sans Pro';-inkscape-font-specification:'Source Sans Pro Bold'"
                 id="path9416" />
              <path
                 d="m -594.16726,1928.7643 0,-68.1499 20.19766,0 0,68.1499 -20.19766,0 z m 10.03013,-78.18 q -5.08376,0 -8.38134,-2.8854 -3.29757,-3.0228 -3.29757,-7.6944 0,-4.6715 3.29757,-7.5569 3.29758,-2.8854 8.38134,-2.8854 5.22116,0 8.38134,2.8854 3.29758,2.8854 3.29758,7.5569 0,4.6716 -3.29758,7.6944 -3.16018,2.8854 -8.38134,2.8854 z"
                 style="font-style:normal;font-variant:normal;font-weight:bold;font-stretch:normal;font-family:'Source Sans Pro';-inkscape-font-specification:'Source Sans Pro Bold'"
                 id="path9418" />
              <path
                 d="m -540.66537,1928.7643 -22.94564,-68.1499 20.33505,0 8.79354,32.1513 q 1.37399,5.0838 2.61058,10.4424 1.37399,5.2211 2.74798,10.5797 l 0.5496,0 q 1.23659,-5.3586 2.47318,-10.5797 1.37399,-5.3586 2.74798,-10.4424 l 8.93093,-32.1513 19.37326,0 -22.25863,68.1499 -23.35783,0 z"
                 style="font-style:normal;font-variant:normal;font-weight:bold;font-stretch:normal;font-family:'Source Sans Pro';-inkscape-font-specification:'Source Sans Pro Bold'"
                 id="path9420" />
              <path
                 d="m -454.97991,1930.4131 q -7.28215,0 -13.6025,-2.3358 -6.32035,-2.4732 -10.99192,-7.0074 -4.67157,-4.6715 -7.28215,-11.2667 -2.61058,-6.5951 -2.61058,-15.1139 0,-8.2439 2.74798,-14.8391 2.74798,-6.7325 7.14475,-11.2667 4.53417,-4.6715 10.30493,-7.1447 5.77075,-2.4732 11.95371,-2.4732 7.28215,0 12.64071,2.4732 5.49596,2.4732 9.06833,6.8699 3.70977,4.3968 5.49596,10.4423 1.78619,5.9082 1.78619,12.9156 0,2.7479 -0.2748,5.2211 -0.2748,2.4732 -0.5496,3.7098 l -40.8075,0 q 1.37399,7.4195 6.04556,10.9919 4.80896,3.435 11.67891,3.435 7.28215,0 14.7017,-4.5342 l 6.73255,12.2285 q -5.22117,3.5724 -11.67892,5.6334 -6.32035,2.061 -12.50331,2.061 z m -15.11389,-43.1433 24.59442,0 q 0,-5.7708 -2.61058,-9.3431 -2.61058,-3.5724 -8.79353,-3.5724 -4.80897,0 -8.51874,3.1602 -3.57238,3.1601 -4.67157,9.7553 z"
                 style="font-style:normal;font-variant:normal;font-weight:bold;font-stretch:normal;font-family:'Source Sans Pro';-inkscape-font-specification:'Source Sans Pro Bold'"
                 id="path9422" />
            </g>
          </g>
          <circle
             transform="matrix(0.84044957,0,0,0.84035379,160.37587,877.34106)"
             style="opacity:1;fill:#ffffff;fill-opacity:1;stroke:none;stroke-width:11.89907265;stroke-linecap:round;stroke-linejoin:round;stroke-miterlimit:4;stroke-dasharray:none;stroke-dashoffset:0;stroke-opacity:1"
             id="path7242-84-7-2-5"
             cx="-105.50538"
             cy="2792.22"
             r="144.3804" />
          <g
             transform="matrix(0.84044957,0,0,0.84035379,338.58855,1423.2154)"
             id="g6310-0-4">
            <path
               sodipodi:nodetypes="cccccc"
               inkscape:export-ydpi="112.45"
               inkscape:export-xdpi="112.45"
               inkscape:export-filename="C:\Users\Stéphane\Desktop\Blogs\OpenFoodFacts\openfoodfacts-250b.png"
               id="path9967-2-2-7"
               d="m -228.70852,2130.0919 0,129.1755 9.12864,-4.9585 0,-124.217 -9.12853,0 z"
               style="fill:#0066ff;fill-opacity:1;fill-rule:nonzero;stroke:none;stroke-width:13.79443169"
               inkscape:connector-curvature="0" />
            <path
               sodipodi:nodetypes="ccccc"
               inkscape:export-ydpi="112.45"
               inkscape:export-xdpi="112.45"
               inkscape:export-filename="C:\Users\Stéphane\Desktop\Blogs\OpenFoodFacts\openfoodfacts-250b.png"
               id="path9969-6-3-4"
               d="m -246.96595,2138.9759 0,121.626 c 4.94556,0 9.88852,0 14.83407,0 l 0,-121.626 c -4.94555,0 -9.88851,0 -14.83407,0 z"
               style="fill:#00ccff;fill-opacity:1;fill-rule:nonzero;stroke:none;stroke-width:13.79443169"
               inkscape:connector-curvature="0" />
            <path
               sodipodi:nodetypes="ccccc"
               inkscape:export-ydpi="112.45"
               inkscape:export-xdpi="112.45"
               inkscape:export-filename="C:\Users\Stéphane\Desktop\Blogs\OpenFoodFacts\openfoodfacts-250b.png"
               id="path9971-1-7-4"
               d="m -314.29017,2100.1229 0,188.7064 c 21.29224,0 42.60867,-10.4593 63.90097,-10.4593 l 0,-178.2471 z"
               style="fill:#00d400;fill-opacity:1;fill-rule:nonzero;stroke:none;stroke-width:13.79443169"
               inkscape:connector-curvature="0" />
            <path
               sodipodi:nodetypes="ccccc"
               inkscape:export-ydpi="112.45"
               inkscape:export-xdpi="112.45"
               inkscape:export-filename="C:\Users\Stéphane\Desktop\Blogs\OpenFoodFacts\openfoodfacts-250b.png"
               id="path9973-8-5-3"
               d="m -380.47331,2127.9756 0,151.8238 c 20.92002,0 41.83987,0 62.75988,0 l 0,-151.8238 c -20.92001,0 -41.83986,0 -62.75988,0 z"
               style="fill:#ffcc00;fill-opacity:1;fill-rule:nonzero;stroke:none;stroke-width:13.79443169"
               inkscape:connector-curvature="0" />
            <path
               sodipodi:nodetypes="ccccc"
               inkscape:export-ydpi="112.45"
               inkscape:export-xdpi="112.45"
               inkscape:export-filename="C:\Users\Stéphane\Desktop\Blogs\OpenFoodFacts\openfoodfacts-250b.png"
               id="path9975-7-9-0"
               d="m -422.69354,2100.2178 0,150.7062 c 12.93273,0 25.86423,24.3581 38.79697,24.3581 l 0,-175.0643 z"
               style="fill:#ff0000;fill-opacity:1;fill-rule:nonzero;stroke:none;stroke-width:13.79443169"
               inkscape:connector-curvature="0" />
          </g>
          <path
             transform="matrix(0.84044957,0,0,0.84035379,160.37587,877.34106)"
             style="fill:#000000;fill-opacity:1;fill-rule:evenodd;stroke:none;stroke-width:1.18990719;stroke-linecap:butt;stroke-linejoin:miter;stroke-miterlimit:4;stroke-dasharray:none;stroke-opacity:1"
             d="m 19.515297,2879.3898 c -11.4952203,15.5022 -24.1138003,29.0761 -40.90665,39.1643 l 19.4692897,18.5071 c 3.73314,-2.5972 7.39755,-5.4075 10.99152,-8.4396 l 12.8284203,-12.1014 c 5.86164,-6.165 10.437123,-11.7574 15.836433,-19.3672 z"
             id="path7244-7-5-9-8-8"
             inkscape:connector-curvature="0"
             sodipodi:nodetypes="ccccccc" />
          <path
             transform="matrix(0.84044957,0,0,0.84035379,160.37587,877.34106)"
             style="fill:#000000;fill-opacity:1;fill-rule:evenodd;stroke:none;stroke-width:1.18990719;stroke-linecap:butt;stroke-linejoin:miter;stroke-miterlimit:4;stroke-dasharray:none;stroke-opacity:1"
             d="m -15.029864,2943.9016 43.85219,42.8164 c 0.99209,1.0915 1.95559,1.78 3.63612,0.8403 l 53.794012,-53.2367 c 0.84957,-1.4033 0.9599,-2.8134 -0.36717,-4.1404 l -43.374121,-42.0036 c -1.24084,-1.2605 -2.76302,-1.7349 -4.22522,-0.2728 l -53.823611,52.5996 c 0,0 -0.91938,1.9698 0.5078,3.3969 z"
             id="path7244-8-2-3-9-6"
             inkscape:connector-curvature="0"
             sodipodi:nodetypes="cccccccccc" />
          <path
             transform="matrix(0.84044957,0,0,0.84035379,160.37587,877.34106)"
             style="opacity:1;fill:#000000;fill-opacity:1;stroke:none;stroke-width:12;stroke-linecap:round;stroke-linejoin:round;stroke-miterlimit:4;stroke-dasharray:none;stroke-dashoffset:0;stroke-opacity:1"
             d="m -104.85899,2639.2981 a 152.42963,152.44699 0 0 0 -152.42994,152.4474 152.42963,152.44699 0 0 0 152.42994,152.4473 152.42963,152.44699 0 0 0 152.42995,-152.4473 152.42963,152.44699 0 0 0 -152.42995,-152.4474 z m 0,14.6446 a 137.78666,137.80236 0 0 1 137.787068,137.8028 137.78666,137.80236 0 0 1 -137.787068,137.8004 137.78666,137.80236 0 0 1 -137.78705,-137.8004 137.78666,137.80236 0 0 1 137.78705,-137.8028 z"
             id="path6323-4-8"
             inkscape:connector-curvature="0" />
          <path
             transform="matrix(0.84044957,0,0,0.84035379,160.37587,877.34106)"
             style="opacity:1;fill:#ffffff;fill-opacity:1;stroke:none;stroke-width:12;stroke-linecap:round;stroke-linejoin:round;stroke-miterlimit:4;stroke-dasharray:none;stroke-dashoffset:0;stroke-opacity:1"
             d="m -104.85898,2654.6694 a 137.47317,137.48882 0 0 0 -137.47312,137.4888 137.47317,137.48882 0 0 0 137.47312,137.4909 137.47317,137.48882 0 0 0 137.47311,-137.4909 137.47317,137.48882 0 0 0 -137.47311,-137.4888 z m 0,3.5237 a 133.95021,133.96547 0 0 1 133.949936,133.9651 133.95021,133.96547 0 0 1 -133.949936,133.9673 133.95021,133.96547 0 0 1 -133.94994,-133.9673 133.95021,133.96547 0 0 1 133.94994,-133.9651 z"
             id="path6323-4-8-8"
             inkscape:connector-curvature="0" />
          <g
             id="g7660-7-8"
             transform="matrix(0.80443699,0,0,0.80443699,350.39232,1552.8121)">
            <circle
               r="98.107292"
               cy="1919.3962"
               cx="-305.79303"
               id="path4916-6-3-4"
               style="opacity:1;fill:url(#radialGradient6614-3-5);fill-opacity:1;stroke:none;stroke-width:3;stroke-linecap:round;stroke-linejoin:round;stroke-miterlimit:4;stroke-dasharray:none;stroke-dashoffset:0;stroke-opacity:1" />
            <circle
               r="98.107292"
               cy="1896.949"
               cx="-315.09723"
               id="path4916-61-3"
               style="opacity:1;fill:#d01716;fill-opacity:1;stroke:none;stroke-width:3;stroke-linecap:round;stroke-linejoin:round;stroke-miterlimit:4;stroke-dasharray:none;stroke-dashoffset:0;stroke-opacity:1" />
            <g
               style="font-style:normal;font-weight:normal;font-size:83.96536255px;line-height:125%;font-family:sans-serif;letter-spacing:0px;word-spacing:0px;fill:#ffffff;fill-opacity:1;stroke:none;stroke-width:1px;stroke-linecap:butt;stroke-linejoin:miter;stroke-opacity:1"
               id="text5781-7-2-1">
              <path
                 d="m -338.10584,1891.9506 q 0,6.8012 -1.76327,14.1062 -1.67931,7.221 -4.11431,12.4269 -2.35103,5.2059 -4.95395,8.6484 -2.51896,3.3586 -4.19827,3.3586 -1.34345,0 -1.76327,1.3435 -0.2519,0.7557 -3.69448,1.3434 -3.35861,0.6718 -7.05309,0.6718 -2.26706,0 -3.61051,-0.5878 -1.34345,-0.5038 -3.52654,-2.1831 -4.45017,-3.5265 -7.80878,-10.9995 -3.35862,-7.5568 -3.35862,-14.1901 0,-7.6409 3.44258,-15.1977 3.44258,-7.6409 8.7324,-11.4193 5.03792,-3.5266 6.71723,-3.5266 1.09155,0 3.44258,-2.267 2.35103,-2.2671 3.77844,-2.2671 1.59534,0 2.60293,-1.0916 1.09155,-1.1755 3.10671,-1.1755 6.29741,0 10.15981,6.2974 3.86241,6.2135 3.86241,16.7091 z m -4.61809,-1.5953 q 0,-2.435 -2.435,-7.221 -2.35103,-4.786 -3.27465,-5.3738 -1.00758,-0.6717 -3.19068,-0.6717 -3.69448,0 -9.57205,1.9312 -12.76274,4.0303 -15.61756,21.2432 -0.83966,5.2059 -0.83966,6.8012 0,2.435 2.01517,8.3965 4.53413,12.6788 12.34291,12.6788 2.1831,0 4.70206,-1.0076 2.93879,-1.0915 7.13706,-7.305 4.28223,-6.2974 4.95395,-10.4117 0.41983,-3.4425 2.09914,-10.4117 1.67931,-6.9691 1.67931,-8.6484 z"
                 style="font-style:normal;font-variant:normal;font-weight:normal;font-stretch:normal;font-family:Purisa;-inkscape-font-specification:Purisa;fill:#ffffff"
                 id="path9409" />
              <path
                 d="m -315.41026,1896.9046 q -1.00759,0 -4.28224,0.9236 -3.19068,0.8397 -5.12189,0.8397 -3.69447,0 -3.69447,-2.3511 0,-0.9236 1.34344,-1.6793 1.42742,-0.7557 5.45775,-1.9312 l 6.8012,-2.0151 0.16793,-10.3278 q 0.16793,-7.8088 1.17551,-17.2129 0.75569,-6.9691 1.34345,-8.8163 0.58776,-1.8473 2.60293,-3.8624 1.6793,-1.6794 2.68689,-2.1831 1.09155,-0.5038 3.02275,-0.5038 1.42741,0 6.04551,0.4198 3.52654,0.3359 5.03792,1.0076 1.51137,0.5877 3.44258,2.5189 2.85482,2.8549 2.85482,5.2059 0,1.6793 -1.34345,3.5265 -1.25948,1.7633 -1.9312,1.7633 -1.00758,0 -1.00758,-2.8548 0,-2.6869 -1.51138,-4.1143 -1.42741,-1.5114 -5.62568,-2.8548 -2.77086,-0.8397 -4.28223,-0.8397 -3.61051,0 -5.62568,4.1983 -0.75569,1.6793 -1.42741,10.9994 -0.58776,9.3202 -0.58776,16.2053 0,4.7861 0.33586,6.0456 0.41983,1.1755 2.09913,1.1755 2.85483,0 9.48809,-1.5114 2.09913,-0.5038 3.44258,-0.5038 0.92362,0 6.04551,-1.5114 l 6.80119,-2.0151 0.16793,-4.2823 q 0.41983,-10.4117 1.17552,-17.2129 0.75569,-6.9691 1.34344,-8.8163 0.58776,-1.8473 2.60293,-3.8624 1.67931,-1.6794 2.68689,-2.1831 1.09155,-0.5038 3.02275,-0.5038 1.42741,0 6.04551,0.4198 3.52654,0.3359 5.03792,1.0076 1.51138,0.5877 3.44258,2.5189 2.85482,2.8549 2.85482,5.2059 0,1.6793 -1.34344,3.5265 -1.25948,1.7633 -1.93121,1.7633 -1.00758,0 -1.00758,-2.8548 0,-2.6869 -1.51138,-4.1143 -1.42741,-1.5114 -5.62568,-2.8548 -2.77085,-0.8397 -4.28223,-0.8397 -3.61051,0 -5.62568,4.1983 -0.83965,1.7632 -1.42741,8.3125 -0.58776,6.5493 -0.58776,12.8467 0,4.7861 0.33586,6.0455 0.41983,1.1756 2.09914,1.1756 1.00758,0 4.19827,-0.5878 3.19068,-0.5878 5.28981,-0.5878 1.17552,0 1.93121,0.4199 0.75569,0.3358 0.75569,0.8396 0,1.4274 -7.22103,3.6105 l -7.22102,2.0992 -0.25189,16.3732 q 0,1.0076 -0.084,2.7709 0,1.6793 0,2.351 0,6.2974 0.58776,9.74 0.58776,3.4426 1.17551,4.9539 0.58776,1.5114 0.58776,3.2747 0,2.519 -2.35103,2.519 -4.45016,0 -4.45016,-23.4264 0,-17.0449 -0.50379,-17.5487 -0.084,-0.084 -0.41983,-0.084 -3.69448,0 -11.41929,1.6793 -7.72481,1.5953 -8.90033,1.6793 -1.34344,0.084 -3.19068,0.5878 -1.76328,0.4198 -2.93879,0.7557 l -1.09155,0.4198 -0.2519,10.3277 q -0.084,1.9312 -0.084,5.1219 0,6.2974 0.58776,9.74 0.58775,3.4426 1.17551,4.9539 0.58776,1.5114 0.58776,3.2747 0,2.519 -2.35103,2.519 -4.45017,0 -4.45017,-23.4264 0,-10.9994 -0.50379,-11.5032 -0.084,-0.084 -0.41982,-0.084 z"
                 style="font-style:normal;font-variant:normal;font-weight:normal;font-stretch:normal;font-family:Purisa;-inkscape-font-specification:Purisa;fill:#ffffff"
                 id="path9411" />
            </g>
          </g>
          <rect
             style="opacity:1;fill:#000000;fill-opacity:1;stroke:none;stroke-width:12;stroke-linecap:round;stroke-linejoin:round;stroke-miterlimit:4;stroke-dasharray:none;stroke-dashoffset:0;stroke-opacity:1"
             id="rect6272-9"
             width="72.478409"
             height="15.152344"
             x="-271.5625"
             y="3188.3804"
             ry="7.5761719"
             rx="8" />
          <rect
             style="opacity:1;fill:#000000;fill-opacity:1;stroke:none;stroke-width:12;stroke-linecap:round;stroke-linejoin:round;stroke-miterlimit:4;stroke-dasharray:none;stroke-dashoffset:0;stroke-opacity:1"
             id="rect6272-4-2"
             width="120.96574"
             height="15.152344"
             x="-304.51871"
             y="3234.3423"
             ry="7.5761719"
             rx="8" />
          <rect
             style="opacity:1;fill:#000000;fill-opacity:1;stroke:none;stroke-width:12;stroke-linecap:round;stroke-linejoin:round;stroke-miterlimit:4;stroke-dasharray:none;stroke-dashoffset:0;stroke-opacity:1"
             id="rect6272-4-7-0"
             width="172.48354"
             height="15.152344"
             x="-341.89435"
             y="3282.5771"
             ry="7.5761719"
             rx="8" />
        </g>
      </g>
    </g>
  </g>
</svg>
