<svg xmlns="http://www.w3.org/2000/svg" viewBox="0 0 28.34646 28.34646"><defs><style>.a{fill:#649d40;}.b{fill:#fff;}</style></defs><title>Bio</title><circle class="a" cx="14.17321" cy="14.22551" r="12.63976"/><path class="b" d="M6.88375,17.61576V10.71537H9.333a2.7203,2.7203,0,0,1,1.70508.47071,1.55163,1.55163,0,0,1,.60547,1.2998,1.72626,1.72626,0,0,1-.25977.93457,1.31862,1.31862,0,0,1-.67969.56543v.04981a1.4824,1.4824,0,0,1,.90918.5205,1.62752,1.62752,0,0,1,.35059,1.07911,1.80858,1.80858,0,0,1-.6211,1.44531,2.49871,2.49871,0,0,1-1.68945.53515ZM8.24313,13.646h.96093a1.05021,1.05021,0,0,0,.78907-.29981.98949.98949,0,0,0,.29-.71093A.86641.86641,0,0,0,9.999,11.941a1.21919,1.21919,0,0,0-.81542-.24512H8.24313Zm0,2.97949H9.29391a1.42256,1.42256,0,0,0,.959-.2998.99835.99835,0,0,0,.35059-.79981.81694.81694,0,0,0-.37989-.71,1.64257,1.64257,0,0,0-.95019-.25977H8.24313Z"/><path class="b" d="M14.333,10.71537v6.90039H12.95309V10.71537Z"/><path class="b" d="M16.14742,11.59623a2.96969,2.96969,0,0,1,2.375-.98047,2.96563,2.96563,0,0,1,2.375.98047,3.79038,3.79038,0,0,1,.84571,2.56934,3.79126,3.79126,0,0,1-.84571,2.57031,2.965,2.965,0,0,1-2.375.97949,2.96906,2.96906,0,0,1-2.375-.97949,3.80022,3.80022,0,0,1-.84375-2.57031A3.79933,3.79933,0,0,1,16.14742,11.59623Zm1.02539,4.36914a1.743,1.743,0,0,0,2.7002,0,2.89884,2.89884,0,0,0,.49023-1.7998,2.90472,2.90472,0,0,0-.49023-1.79492,1.7363,1.7363,0,0,0-2.7002,0,2.91111,2.91111,0,0,0-.49023,1.79492A2.90517,2.90517,0,0,0,17.17281,15.96537Z"/></svg>